<?xml version="1.0" encoding="UTF-8" standalone="no"?>
<svg width="440px" height="114px" viewBox="0 0 440 114" version="1.1" xmlns="http://www.w3.org/2000/svg" xmlns:xlink="http://www.w3.org/1999/xlink">
    <!-- Generator: Sketch 42 (36781) - http://www.bohemiancoding.com/sketch -->
    <title>EdTrack Logo</title>
    <desc>Created with Sketch.</desc>
    <defs></defs>
    <g id="Page-1" stroke="none" stroke-width="1" fill="none" fill-rule="evenodd">
        <g id="EdTrack-Logo" transform="translate(-82.000000, -78.000000)">
            <g transform="translate(82.000000, 78.000000)">
                <g id="Group-10-Copy">
                    <g id="Group-9">
                        <g id="Group-8">
                            <g id="Group-11">
                                <g id="Group-5" transform="translate(92.000000, 44.000000)" stroke-width="5" stroke-linecap="round">
                                    <path d="M49.7633556,0 L32,0 C14.326888,0 0,14.326888 0,32" id="Oval-2-Copy-2" stroke="#E57716"></path>
                                    <path d="M0,32 C0,49.673112 14.326888,64 32,64 L50.127659,64" id="Oval-2-Copy-7" stroke="#F8C400"></path>
                                </g>
                                <rect id="Rectangle-6" fill="#1ABC9C" x="136" y="42" width="5" height="64" rx="2.5"></rect>
                                <rect id="Rectangle-6-Copy" fill="#DD1379" x="136" y="10" width="5" height="34" rx="2.5"></rect>
                                <circle id="Oval-3-Copy-4" fill="#13244F" cx="138" cy="44" r="6"></circle>
                                <circle id="Oval-3-Copy" fill="#13244F" cx="92" cy="76" r="6"></circle>
                                <circle id="Oval-3-Copy-2" fill="#13244F" cx="138" cy="108" r="6"></circle>
                                <circle id="Oval-3-Copy-3" fill="#13244F" cx="138" cy="6" r="6"></circle>
                                <g id="Group-7" transform="translate(0.000000, 38.000000)">
                                    <g id="Group-6" transform="translate(4.000000, 6.000000)">
                                        <path d="M34,0 C16.326888,0 2,14.326888 2,32" id="Oval-2" stroke="#54BBEE" stroke-width="5"></path>
                                        <path d="M66,32 C66,14.326888 51.673112,0 34,0" id="Oval-2-Copy-3" stroke="#F8C400" stroke-width="5" stroke-linecap="round"></path>
                                        <rect id="Rectangle-7" fill="#1ABC9C" x="0" y="30" width="68" height="5" rx="2"></rect>
                                        <path d="M2,32 C2,49.673112 16.326888,64 34,64 L34,64 C42.499672,64 50.2253576,60.6861707 55.9555498,55.2800191" id="Oval-4" stroke="#DD1379" stroke-width="5" stroke-linecap="round"></path>
                                    </g>
                                    <circle id="Oval-3-Copy-5" fill="#13244F" cx="70" cy="38" r="6"></circle>
                                    <circle id="Oval-3-Copy-6" fill="#13244F" cx="6" cy="38" r="6"></circle>
                                    <circle id="Oval-3-Copy-8" fill="#13244F" cx="38" cy="6" r="6"></circle>
                                    <circle id="Oval-3-Copy-7" fill="#13244F" cx="60" cy="60" r="6"></circle>
                                </g>
                            </g>
                        </g>
                    </g>
                </g>
                <path d="M179.328,104.304 C176.682653,100.506648 175.36,95.2800333 175.36,88.624 L175.36,50.864 L165.376,50.864 C164.522662,50.864 163.840003,50.6080026 163.328,50.096 C162.815997,49.5839974 162.56,48.9013376 162.56,48.048 L162.56,46.256 C162.56,45.4026624 162.815997,44.7200026 163.328,44.208 C163.840003,43.6959974 164.522662,43.44 165.376,43.44 L175.36,43.44 L175.36,21.936 C175.36,21.0826624 175.615997,20.4000026 176.128,19.888 C176.640003,19.3759974 177.322662,19.12 178.176,19.12 L180.352,19.12 C181.205338,19.12 181.887997,19.3759974 182.4,19.888 C182.912003,20.4000026 183.168,21.0826624 183.168,21.936 L183.168,43.44 L199.04,43.44 C199.893338,43.44 200.575997,43.6959974 201.088,44.208 C201.600003,44.7200026 201.856,45.4026624 201.856,46.256 L201.856,48.048 C201.856,48.9013376 201.600003,49.5839974 201.088,50.096 C200.575997,50.6080026 199.893338,50.864 199.04,50.864 L183.168,50.864 L183.168,88.112 C183.168,92.8906906 183.957325,96.4959878 185.536,98.928 C187.114675,101.360012 189.738648,102.576 193.408,102.576 L200.32,102.576 C201.173338,102.576 201.855997,102.831997 202.368,103.344 C202.880003,103.856003 203.136,104.538662 203.136,105.392 L203.136,107.184 C203.136,108.037338 202.880003,108.719997 202.368,109.232 C201.855997,109.744003 201.173338,110 200.32,110 L192.768,110 C186.453302,110 181.973347,108.101352 179.328,104.304 Z M215.288,109.232 C214.775997,108.719997 214.52,108.037338 214.52,107.184 L214.52,46.384 C214.52,45.5306624 214.775997,44.8266694 215.288,44.272 C215.800003,43.7173306 216.482662,43.44 217.336,43.44 L219.384,43.44 C220.237338,43.44 220.941331,43.7173306 221.496,44.272 C222.050669,44.8266694 222.328,45.5306624 222.328,46.384 L222.328,52.272 C225.400015,46.3839706 231.202624,43.44 239.736,43.44 L244.472,43.44 C245.325338,43.44 246.007997,43.6959974 246.52,44.208 C247.032003,44.7200026 247.288,45.4026624 247.288,46.256 L247.288,48.048 C247.288,48.9013376 247.032003,49.5839974 246.52,50.096 C246.007997,50.6080026 245.325338,50.864 244.472,50.864 L238.968,50.864 C233.847974,50.864 229.794682,52.3573184 226.808,55.344 C223.821318,58.3306816 222.328,62.3839744 222.328,67.504 L222.328,107.184 C222.328,108.037338 222.050669,108.719997 221.496,109.232 C220.941331,109.744003 220.237338,110 219.384,110 L217.336,110 C216.482662,110 215.800003,109.744003 215.288,109.232 Z M262.768,108.72 C259.269316,107.013325 256.474677,104.709348 254.384,101.808 C252.293323,98.9066522 251.248,95.7066842 251.248,92.208 C251.248,86.5759718 253.530644,81.9680179 258.096,78.384 C262.661356,74.7999821 268.826628,72.4960051 276.592,71.472 L296.816,68.656 L296.816,64.176 C296.816,59.4826432 295.386681,55.8773459 292.528,53.36 C289.669319,50.8426541 285.29603,49.584 279.408,49.584 C275.055978,49.584 271.493347,50.4373248 268.72,52.144 C265.946653,53.8506752 264.176004,55.8986547 263.408,58.288 C263.066665,59.3120051 262.661336,60.0159981 262.192,60.4 C261.722664,60.7840019 261.104004,60.976 260.336,60.976 L258.544,60.976 C257.775996,60.976 257.11467,60.6986694 256.56,60.144 C256.005331,59.5893306 255.728,58.9280038 255.728,58.16 C255.728,56.2826573 256.581325,54.0853459 258.288,51.568 C259.994675,49.0506541 262.639982,46.8533427 266.224,44.976 C269.808018,43.0986573 274.202641,42.16 279.408,42.16 C288.538712,42.16 295.023981,44.3359782 298.864,48.688 C302.704019,53.0400218 304.624,58.3306355 304.624,64.56 L304.624,107.184 C304.624,108.037338 304.368003,108.719997 303.856,109.232 C303.343998,109.744003 302.661338,110 301.808,110 L299.632,110 C298.778662,110 298.096003,109.744003 297.584,109.232 C297.071998,108.719997 296.816,108.037338 296.816,107.184 L296.816,101.168 C294.938657,103.984014 292.186685,106.373324 288.56,108.336 C284.933315,110.298676 280.133363,111.28 274.16,111.28 C270.06398,111.28 266.266684,110.426675 262.768,108.72 Z M290.8,97.712 C294.810687,93.6159795 296.816,87.7280384 296.816,80.048 L296.816,75.696 L280.304,78 C273.306632,78.9386714 268.016018,80.5599885 264.432,82.864 C260.847982,85.1680115 259.056,88.0693158 259.056,91.568 C259.056,95.493353 260.69865,98.522656 263.984,100.656 C267.26935,102.789344 271.087978,103.856 275.44,103.856 C281.669365,103.856 286.789313,101.80802 290.8,97.712 Z M327.656,103.536 C322.791976,98.3733075 320.232001,91.1413798 319.976,81.84 L319.848,76.72 L319.976,71.6 C320.232001,62.2986202 322.791976,55.0666925 327.656,49.904 C332.520024,44.7413075 339.389289,42.16 348.264,42.16 C353.896028,42.16 358.69598,43.1626566 362.664,45.168 C366.63202,47.1733434 369.597324,49.7333178 371.56,52.848 C373.522677,55.9626822 374.589333,59.1839834 374.76,62.512 C374.845334,63.2800038 374.589336,63.9413306 373.992,64.496 C373.394664,65.0506694 372.712004,65.328 371.944,65.328 L370.152,65.328 C369.298663,65.328 368.680002,65.1360019 368.296,64.752 C367.911998,64.3679981 367.506669,63.6640051 367.08,62.64 C365.373325,57.9466432 362.984016,54.5973434 359.912,52.592 C356.839985,50.5866566 352.957357,49.584 348.264,49.584 C342.119969,49.584 337.234685,51.4399814 333.608,55.152 C329.981315,58.8640186 328.040001,64.5599616 327.784,72.24 L327.656,76.72 L327.784,81.2 C328.040001,88.8800384 329.981315,94.5759814 333.608,98.288 C337.234685,102.000019 342.119969,103.856 348.264,103.856 C352.957357,103.856 356.839985,102.853343 359.912,100.848 C362.984016,98.8426566 365.373325,95.4933568 367.08,90.8 C367.506669,89.7759949 367.911998,89.0720019 368.296,88.688 C368.680002,88.3039981 369.298663,88.112 370.152,88.112 L371.944,88.112 C372.712004,88.112 373.394664,88.3893306 373.992,88.944 C374.589336,89.4986694 374.845334,90.1599962 374.76,90.928 C374.589333,94.2560166 373.522677,97.4773178 371.56,100.592 C369.597324,103.706682 366.63202,106.266657 362.664,108.272 C358.69598,110.277343 353.896028,111.28 348.264,111.28 C339.389289,111.28 332.520024,108.698692 327.656,103.536 Z M390.752,109.232 C390.239998,108.719997 389.984,108.037338 389.984,107.184 L389.984,21.936 C389.984,21.0826624 390.239998,20.4000026 390.752,19.888 C391.264003,19.3759974 391.946663,19.12 392.8,19.12 L394.976,19.12 C395.829338,19.12 396.511998,19.3759974 397.024,19.888 C397.536003,20.4000026 397.792,21.0826624 397.792,21.936 L397.792,67.248 L426.336,45.616 C427.70134,44.5919949 428.639998,43.9733344 429.152,43.76 C429.664003,43.5466656 430.517328,43.44 431.712,43.44 L434.144,43.44 C434.912004,43.44 435.530665,43.6746643 436,44.144 C436.469336,44.6133357 436.704,45.2319962 436.704,46 C436.704,46.9386714 436.149339,47.7919962 435.04,48.56 L402.656,73.136 L438.24,104.88 C439.349339,105.904005 439.904,106.75733 439.904,107.44 C439.904,108.208004 439.669336,108.826664 439.2,109.296 C438.730665,109.765336 438.112004,110 437.344,110 L435.296,110 C434.015994,110 433.077337,109.893334 432.48,109.68 C431.882664,109.466666 431.029339,108.848005 429.92,107.824 L397.792,79.28 L397.792,107.184 C397.792,108.037338 397.536003,108.719997 397.024,109.232 C396.511998,109.744003 395.829338,110 394.976,110 L392.8,110 C391.946663,110 391.264003,109.744003 390.752,109.232 Z" id="track" fill="#13244F"></path>
            </g>
        </g>
    </g>
</svg>